<svg id="Layer_1" data-name="Layer 1" xmlns="http://www.w3.org/2000/svg" viewBox="0 0 800 500"><defs><style>.cls-1{fill:#c7e9f2;}.cls-2{fill:#81cfdf;}.cls-3{fill:#4fa887;}.cls-4{fill:#bab7a3;}.cls-5{fill:#f2f1ef;}.cls-6{fill:#5e7a6f;}.cls-7{fill:#919081;}.cls-8{fill:#e3dbc6;}.cls-9{fill:#cacaca;}.cls-10{fill:#6dc497;}.cls-11{fill:#fff;}.cls-12{fill:none;}.cls-13{isolation:isolate;font-size:40px;fill:#698ea1;font-family:Impact, Impact;letter-spacing:0.75em;}.cls-14{letter-spacing:0.69em;}</style></defs><title>background</title><g id="Background"><rect class="cls-1" width="800" height="450"/></g><g id="Sea"><rect class="cls-2" y="308" width="800" height="192"/></g><g id="Mountains"><path class="cls-3" d="M400,396.5c187.4,0,339.4-39.6,339.4-88.5H60.6C60.6,356.9,212.6,396.5,400,396.5Z"/><polygon class="cls-4" points="344.7 342.7 302.4 323.4 340.2 240.4 349.6 260.3 372.2 220.4 392.3 260.3 344.7 342.7"/><polygon class="cls-5" points="331.1 260.3 336.5 269.7 340.2 262 350.1 270.7 357.3 257 359 270.7 364.3 253 370.4 267.4 376.4 255.6 383.9 267.8 388.6 253 372.2 220.4 349.6 260.3 340.2 240.4 331.1 260.3"/><polygon class="cls-6" points="417.2 382.4 684.5 350.9 547.3 342.7 708.2 331.1 531.5 321.4 472.8 329.8 417.2 382.4"/><polygon class="cls-7" points="486.5 338.3 531.5 321.4 495.1 238.9 481.9 281.6 472 265.4 455.4 293.2 486.5 338.3"/><polygon class="cls-8" points="340.2 344.4 417.2 382.4 417.2 203.9 405.6 238.9 397 224.4 340.2 344.4"/><polygon class="cls-4" points="417.2 203.9 449.4 276.4 455.4 252.3 493.6 341.1 417.2 382.4 417.2 203.9"/><polygon class="cls-5" points="386.1 247.6 393.4 242.1 395.2 253.4 403 242.8 407.5 256.1 412.1 246.9 417.2 260.3 417.2 203.9 405.6 238.9 397 224.4 386.1 247.6"/><polygon class="cls-9" points="417.2 260.3 422.9 246.6 427.4 260.3 429.2 243.8 438.6 252.1 417.2 203.9 417.2 260.3"/><polygon class="cls-5" points="489.4 257.6 493.4 262.8 495.7 256.9 502.6 263.5 503.6 258.2 495.1 238.9 489.4 257.6"/><path class="cls-10" d="M236.1,296.6a5,5,0,0,0,.8-2.7,5.39,5.39,0,0,0-10.6-1.4,4.93,4.93,0,0,0-.2,9.3,2.77,2.77,0,0,0-.1.9,3.9,3.9,0,0,0,3.9,3.9,3.79,3.79,0,0,0,3.6-2.6h.2a4.12,4.12,0,0,0,4.1-4.1A4.3,4.3,0,0,0,236.1,296.6Z"/><path class="cls-8" d="M234,300.1c.1-.1.1-.3,0-.3s-.3-.1-.3,0l-1.9,1.9v-1.2h0v-2.6a.2.2,0,0,0-.4,0v2l-3.1-3.1c-.1-.1-.3-.1-.3,0s-.1.3,0,.3l3.5,3.5v1.7h0v1.4l-1.1-1.1c-.1-.1-.3-.1-.3,0s-.1.3,0,.3l1.4,1.4v5.3a.2.2,0,1,0,.4,0v-5.4h0v-1.9Z"/><path class="cls-10" d="M160.2,302.7a3.94,3.94,0,0,0,.6-2.1,4.23,4.23,0,0,0-4.2-4.2,4.29,4.29,0,0,0-4.1,3.1,3.79,3.79,0,0,0-.2,7.2,1.7,1.7,0,0,0-.1.7,3,3,0,0,0,3,3,2.91,2.91,0,0,0,2.8-2h.1a3.22,3.22,0,0,0,3.2-3.2A3,3,0,0,0,160.2,302.7Z"/><path class="cls-8" d="M158.5,305.5a.21.21,0,0,0-.3-.3l-1.5,1.5v-.9h0v-2a.2.2,0,0,0-.4,0v1.6l-2.5-2.5a.21.21,0,1,0-.3.3l2.7,2.7v1.3h0v1.1l-.9-.9a.21.21,0,1,0-.3.3l1.1,1.1v4.1a.2.2,0,0,0,.4,0v-4.2h0v-1.5Z"/><path class="cls-10" d="M616.3,295.6c0-7.8-2.1-14.1-4.7-14.1s-4.7,6.3-4.7,14.1,2.1,14.1,4.7,14.1S616.3,303.4,616.3,295.6Z"/><path class="cls-8" d="M611.8,303.8v-8c0-.2-.1-.4-.2-.4s-.2.2-.2.4v7l-1.6-3q-.15-.3-.3,0a.64.64,0,0,0,0,.6l1.9,3.5v12.5c0,.2.1.4.2.4s.2-.2.2-.4V303.8Z"/></g><g id="Clouds"><path class="cls-11" d="M208.9,166.1h-1.3c-3.5-8-14-13.7-26.3-13.7s-22.5,5.7-26.2,13.5a26.44,26.44,0,0,0-16.1-5.1c-12,0-21.7,10.6-21.7,19.2H226.4C224.8,174.2,217.6,166.1,208.9,166.1Z"/><path class="cls-11" d="M752.3,166.1H751c-3.5-8-14-13.7-26.3-13.7s-22.5,5.7-26.2,13.5a26.44,26.44,0,0,0-16.1-5.1c-12,0-21.7,10.6-21.7,19.2H769.8C768.2,174.2,761,166.1,752.3,166.1Z"/><path class="cls-11" d="M286.1,27.1h1c2.7-6.1,10.6-10.4,20-10.4S324.3,21,327,27a19.77,19.77,0,0,1,12.2-3.9c9.1,0,16.5,8.1,16.5,14.6H272.6C274,33.3,279.5,27.1,286.1,27.1Z"/><path class="cls-11" d="M700.3,27.1h1c2.7-6.1,10.6-10.4,20-10.4S738.5,21,741.2,27a19.77,19.77,0,0,1,12.2-3.9c9.1,0,16.5,8.1,16.5,14.6H686.8C688.2,33.3,693.7,27.1,700.3,27.1Z"/><path class="cls-11" d="M532.4,166.1h1c2.7-6.1,10.6-10.4,20-10.4s17.2,4.3,19.9,10.3a19.77,19.77,0,0,1,12.2-3.9c9.1,0,16.5,8.1,16.5,14.6H519C520.3,172.3,525.8,166.1,532.4,166.1Z"/><path class="cls-11" d="M692.6,75.8a22.8,22.8,0,0,0-10.9,2.5c-5-7.5-17-12.8-31-12.8-11.2,0-21,3.4-27.1,8.5a28.47,28.47,0,0,0-14-3.5c-8.1,0-15.2,3.1-19.3,7.8a23.08,23.08,0,0,0-10.9-2.5c-9.2,0-16.7,4.6-16.7,10.3H709.4C709.4,80.4,701.9,75.8,692.6,75.8Z"/><path class="cls-11" d="M42.1,51.4A22.8,22.8,0,0,1,53,53.9c5-7.5,17-12.8,31-12.8,11.2,0,21,3.4,27.1,8.5a28.47,28.47,0,0,1,14-3.5c8.1,0,15.2,3.1,19.3,7.8a23.08,23.08,0,0,1,10.9-2.5c9.2,0,16.7,4.6,16.7,10.3H25.3C25.3,56,32.8,51.4,42.1,51.4Z"/><path class="cls-11" d="M169.6,251.2a22.8,22.8,0,0,0-10.9,2.5c-5-7.5-17-12.8-31-12.8-11.2,0-21,3.4-27.1,8.5a28.47,28.47,0,0,0-14-3.5c-8.1,0-15.2,3.1-19.3,7.8a23.08,23.08,0,0,0-10.9-2.5c-9.2,0-16.7,4.6-16.7,10.3H186.4C186.3,255.8,178.8,251.2,169.6,251.2Z"/><path class="cls-11" d="M411.5,288.6a17,17,0,0,0-7.8,1.8c-3.6-5.3-12.1-9.1-22.1-9.1-8,0-15,2.4-19.4,6.1a20,20,0,0,0-10-2.5c-5.8,0-10.9,2.2-13.8,5.5a17,17,0,0,0-7.8-1.8c-6.6,0-12,3.3-12,7.3H423.3C423.5,291.9,418.1,288.6,411.5,288.6Z"/><path class="cls-11" d="M505.3,277.8h.7c1.9-4.2,7.3-7.2,13.8-7.2s11.9,3,13.8,7.1A14,14,0,0,1,542,275c6.3,0,11.4,5.6,11.4,10.1H496C496.9,282.1,500.7,277.8,505.3,277.8Z"/></g><g id="Text"><rect class="cls-12" x="126.3" y="109.4" width="547.5" height="43.5"/><text class="cls-13" transform="translate(141.84 141.05)">M<tspan class="cls-14" x="58.67" y="0">A</tspan><tspan x="106.78" y="0">THventure</tspan></text></g></svg>